<?xml version="1.0" encoding="utf-8"?>
<!-- Generator: Adobe Illustrator 15.0.0, SVG Export Plug-In . SVG Version: 6.00 Build 0)  -->
<!DOCTYPE svg PUBLIC "-//W3C//DTD SVG 1.1//EN" "http://www.w3.org/Graphics/SVG/1.1/DTD/svg11.dtd">
<svg version="1.1" id="Layer_1" xmlns="http://www.w3.org/2000/svg" xmlns:xlink="http://www.w3.org/1999/xlink" x="0px" y="0px"
	 width="100px" height="100px" viewBox="0 0 100 100" enable-background="new 0 0 100 100" xml:space="preserve">
<g>
	<defs>
		<circle id="SVGID_1_" cx="50" cy="50" r="50"/>
	</defs>
	<clipPath id="SVGID_2_">
		<use xlink:href="#SVGID_1_"  overflow="visible"/>
	</clipPath>
	<path clip-path="url(#SVGID_2_)" fill="#FFFFFF" d="M60.161,60.163c30.384-0.034,60.767-0.005,91.15-0.015v6.765
		c-14.891,0.021-29.783-0.04-44.672,0.03c14.872,7.481,29.771,14.916,44.672,22.343v3.833
		c-17.299-8.716-34.652-17.326-51.967-26.017c-0.397-0.234-0.871-0.192-1.311-0.194c-4.69,0.032-9.382-0.04-14.068,0.035
		c19.765,9.975,39.603,19.814,59.396,29.737c2.655,1.301,5.269,2.688,7.949,3.935v0.125h-22.593
		c-20.572-10.35-41.191-20.612-61.787-30.916c-0.044,10.304-0.006,20.61-0.019,30.916h-6.765
		C60.158,87.215,60.129,73.688,60.161,60.163 M-51.312,60.148c30.383,0.01,60.767-0.02,91.15,0.015
		c0.032,13.524,0.003,27.052,0.014,40.577h-6.766c-0.013-10.306,0.025-20.612-0.019-30.916
		C12.473,80.128-8.145,90.391-28.718,100.74h-7.476c0.575-0.399,1.221-0.673,1.842-0.987c21.86-10.941,43.734-21.854,65.588-32.808
		c-4.853-0.076-9.708-0.007-14.563-0.035c-0.734-0.042-1.326,0.458-1.967,0.735c-22.011,10.98-43.982,22.044-66.019,32.971V89.288
		c14.899-7.43,29.8-14.861,44.672-22.345c-14.889-0.07-29.781-0.01-44.672-0.03V60.148 M60.148-0.74h6.765
		c0.013,10.305-0.023,20.612,0.019,30.916C87.527,19.872,108.146,9.609,128.719-0.74h7.604
		C114.381,10.269,92.409,21.22,70.455,32.21c-0.529,0.279-1.1,0.485-1.576,0.853c4.813,0.059,9.632,0.003,14.447,0.027
		c0.776,0.036,1.398-0.506,2.079-0.793c21.976-10.958,43.907-22.006,65.906-32.912v11.327c-14.899,7.43-29.8,14.863-44.672,22.344
		c14.889,0.071,29.781,0.01,44.672,0.03v6.766c-30.384-0.01-60.767,0.02-91.148-0.015C60.128,26.313,60.158,12.785,60.148-0.74
		 M-51.312-0.74h22.591C-8.146,9.607,12.471,19.872,33.068,30.176C33.11,19.872,33.075,9.565,33.086-0.74h6.766
		c-0.008,13.525,0.019,27.053-0.014,40.577c-30.383,0.035-60.767,0.005-91.15,0.015v-6.766c14.891-0.02,29.783,0.041,44.672-0.03
		c-14.874-7.479-29.771-14.916-44.672-22.343V6.945c17.406,8.638,34.762,17.382,52.158,26.045c0.354,0.144,0.748,0.086,1.122,0.102
		c4.688-0.032,9.38,0.039,14.067-0.036C-3.995,22.952-24.096,12.978-44.152,2.923c-2.392-1.17-4.744-2.422-7.16-3.54V-0.74"/>
	<path clip-path="url(#SVGID_2_)" fill="#20326B" d="M66.932,69.824c20.596,10.304,41.215,20.566,61.787,30.916H66.913
		C66.926,90.435,66.888,80.128,66.932,69.824 M-28.718,100.74c20.573-10.35,41.191-20.612,61.786-30.916
		c0.044,10.304,0.005,20.61,0.019,30.916H-28.718 M106.64,66.943c14.889-0.07,29.781-0.01,44.672-0.03v22.373
		C136.411,81.859,121.512,74.425,106.64,66.943 M-51.312,66.913c14.891,0.021,29.783-0.04,44.672,0.03
		c-14.872,7.483-29.772,14.915-44.672,22.345V66.913 M106.64,33.056c14.872-7.481,29.772-14.914,44.672-22.344v22.375
		C136.421,33.066,121.528,33.127,106.64,33.056 M-51.312,10.713C-36.411,18.14-21.513,25.577-6.64,33.056
		c-14.889,0.071-29.781,0.01-44.672,0.03V10.713 M66.913-0.74h61.806C108.146,9.609,87.527,19.872,66.932,30.176
		C66.89,19.872,66.926,9.565,66.913-0.74 M-28.72-0.74h61.807c-0.012,10.305,0.024,20.612-0.019,30.916
		C12.471,19.872-8.146,9.607-28.72-0.74"/>
	<path clip-path="url(#SVGID_2_)" fill="#CF142C" d="M83.966,66.943c4.687-0.075,9.378-0.003,14.068-0.035
		c0.439,0.002,0.913-0.04,1.311,0.194c17.314,8.69,34.668,17.301,51.967,26.017v7.496c-2.681-1.247-5.294-2.634-7.949-3.935
		C123.568,86.758,103.73,76.918,83.966,66.943 M14.707,67.646c0.641-0.277,1.233-0.777,1.967-0.735
		c4.854,0.028,9.71-0.041,14.563,0.035C9.382,77.898-12.492,88.812-34.352,99.753c-0.621,0.314-1.267,0.588-1.842,0.987h-15.117
		v-0.124C-29.275,89.689-7.304,78.626,14.707,67.646 M-51.312-0.617c2.416,1.118,4.768,2.37,7.16,3.54
		c20.056,10.055,40.157,20.029,60.187,30.133c-4.687,0.074-9.379,0.003-14.067,0.036C1.594,33.077,1.2,33.134,0.846,32.99
		c-17.396-8.663-34.752-17.407-52.158-26.045V-0.617 M136.322-0.74h14.989v0.125c-21.999,10.906-43.931,21.954-65.906,32.912
		c-0.681,0.287-1.303,0.829-2.079,0.793c-4.815-0.023-9.634,0.032-14.447-0.027c0.477-0.367,1.047-0.573,1.576-0.853
		C92.409,21.22,114.381,10.269,136.322-0.74 M39.852-0.74h20.296c0.01,13.525-0.021,27.053,0.015,40.577
		c30.382,0.035,60.765,0.005,91.148,0.015v20.296c-30.384,0.01-60.767-0.02-91.15,0.015c-0.032,13.524-0.003,27.052-0.013,40.577
		H39.852c-0.01-13.525,0.019-27.053-0.014-40.577c-30.383-0.034-60.767-0.005-91.15-0.015V39.852
		c30.383-0.01,60.767,0.02,91.15-0.015C39.871,26.313,39.844,12.785,39.852-0.74"/>
</g>
</svg>
